{
    "asset": {
        "version": "1.0",
        "generator": "Open Asset Import Library (assimp v4.1.0)"
    },
    "accessors": {
        "Jersey1_mesh_accessor": {
            "bufferView": "Jersey1_mesh_view",
            "byteOffset": 0,
            "byteStride": 0,
            "componentType": 5126,
            "count": 15651,
            "type": "VEC3",
            "max": [
                0.3484169542789459,
                0.10077378153800965,
                0.3103545904159546
            ],
            "min": [
                -0.34803253412246706,
                -0.06772460788488388,
                -0.007190108299255371
            ]
        },
        "Jersey1_mesh_accessor_0": {
            "bufferView": "Jersey1_mesh_view_0",
            "byteOffset": 0,
            "byteStride": 0,
            "componentType": 5126,
            "count": 15651,
            "type": "VEC3",
            "max": [
                0.9980553984642029,
                0.9998871684074402,
                0.9953189492225647
            ],
            "min": [
                -0.9947888851165772,
                -0.9999669790267944,
                -0.9942970871925354
            ]
        },
        "Jersey1_mesh_accessor_1": {
            "bufferView": "Jersey1_mesh_view_1",
            "byteOffset": 0,
            "byteStride": 0,
            "componentType": 5126,
            "count": 15651,
            "type": "VEC2",
            "max": [
                0.98486328125,
                0.568418025970459
            ],
            "min": [
                0.01500003132969141,
                0.08638995885848999
            ]
        },
        "Jersey1_mesh_accessor_2": {
            "bufferView": "Jersey1_mesh_view_2",
            "byteOffset": 0,
            "byteStride": 0,
            "componentType": 5123,
            "count": 91290,
            "type": "SCALAR",
            "max": [
                15650.0
            ],
            "min": [
                0.0
            ]
        },
        "Jersey1_mesh_0_accessor": {
            "bufferView": "Jersey1_mesh_0_view",
            "byteOffset": 0,
            "byteStride": 0,
            "componentType": 5126,
            "count": 65535,
            "type": "VEC3",
            "max": [
                0.19648966193199159,
                0.1267009973526001,
                0.2943176031112671
            ],
            "min": [
                -0.1952633112668991,
                -0.0371369831264019,
                -0.3902445435523987
            ]
        },
        "Jersey1_mesh_0_accessor_0": {
            "bufferView": "Jersey1_mesh_0_view_0",
            "byteOffset": 0,
            "byteStride": 0,
            "componentType": 5126,
            "count": 65535,
            "type": "VEC3",
            "max": [
                0.9999822974205017,
                0.9999906420707703,
                0.8815478086471558
            ],
            "min": [
                -0.9999573826789856,
                -0.5167452692985535,
                -0.8663113713264465
            ]
        },
        "Jersey1_mesh_0_accessor_1": {
            "bufferView": "Jersey1_mesh_0_view_1",
            "byteOffset": 0,
            "byteStride": 0,
            "componentType": 5126,
            "count": 65535,
            "type": "VEC2",
            "max": [
                0.7677975296974182,
                0.9849994778633118
            ],
            "min": [
                0.4326440691947937,
                0.5328423976898193
            ]
        },
        "Jersey1_mesh_0_accessor_2": {
            "bufferView": "Jersey1_mesh_0_view_2",
            "byteOffset": 0,
            "byteStride": 0,
            "componentType": 5123,
            "count": 65535,
            "type": "SCALAR",
            "max": [
                65534.0
            ],
            "min": [
                0.0
            ]
        },
        "Jersey1_mesh_1_accessor": {
            "bufferView": "Jersey1_mesh_1_view",
            "byteOffset": 0,
            "byteStride": 0,
            "componentType": 5126,
            "count": 62409,
            "type": "VEC3",
            "max": [
                0.16815514862537385,
                0.1267009973526001,
                0.25421392917633059
            ],
            "min": [
                -0.17253269255161286,
                -0.01677495241165161,
                -0.3479686379432678
            ]
        },
        "Jersey1_mesh_1_accessor_0": {
            "bufferView": "Jersey1_mesh_1_view_0",
            "byteOffset": 0,
            "byteStride": 0,
            "componentType": 5126,
            "count": 62409,
            "type": "VEC3",
            "max": [
                0.9949702620506287,
                0.9999997615814209,
                0.5707206726074219
            ],
            "min": [
                -0.9969242811203003,
                -0.31492340564727785,
                -0.4019933044910431
            ]
        },
        "Jersey1_mesh_1_accessor_1": {
            "bufferView": "Jersey1_mesh_1_view_1",
            "byteOffset": 0,
            "byteStride": 0,
            "componentType": 5126,
            "count": 62409,
            "type": "VEC2",
            "max": [
                0.7552773952484131,
                0.9653069376945496
            ],
            "min": [
                0.44389742612838747,
                0.564855694770813
            ]
        },
        "Jersey1_mesh_1_accessor_2": {
            "bufferView": "Jersey1_mesh_1_view_2",
            "byteOffset": 0,
            "byteStride": 0,
            "componentType": 5123,
            "count": 62409,
            "type": "SCALAR",
            "max": [
                62408.0
            ],
            "min": [
                0.0
            ]
        },
        "Jersey1_mesh_2_accessor": {
            "bufferView": "Jersey1_mesh_2_view",
            "byteOffset": 0,
            "byteStride": 0,
            "componentType": 5126,
            "count": 65535,
            "type": "VEC3",
            "max": [
                0.19299614429473878,
                0.1254645586013794,
                0.27435946464538576
            ],
            "min": [
                -0.19026826322078706,
                -0.1606723815202713,
                -0.38575559854507449
            ]
        },
        "Jersey1_mesh_2_accessor_0": {
            "bufferView": "Jersey1_mesh_2_view_0",
            "byteOffset": 0,
            "byteStride": 0,
            "componentType": 5126,
            "count": 65535,
            "type": "VEC3",
            "max": [
                0.9998529553413391,
                0.9999991059303284,
                0.8268009424209595
            ],
            "min": [
                -0.99996018409729,
                -0.9998030662536621,
                -0.7645385265350342
            ]
        },
        "Jersey1_mesh_2_accessor_1": {
            "bufferView": "Jersey1_mesh_2_view_1",
            "byteOffset": 0,
            "byteStride": 0,
            "componentType": 5126,
            "count": 65535,
            "type": "VEC2",
            "max": [
                0.7650348544120789,
                0.9849997758865356
            ],
            "min": [
                0.04385841637849808,
                0.5319678783416748
            ]
        },
        "Jersey1_mesh_2_accessor_2": {
            "bufferView": "Jersey1_mesh_2_view_2",
            "byteOffset": 0,
            "byteStride": 0,
            "componentType": 5123,
            "count": 65535,
            "type": "SCALAR",
            "max": [
                65534.0
            ],
            "min": [
                0.0
            ]
        },
        "Jersey1_mesh_3_accessor": {
            "bufferView": "Jersey1_mesh_3_view",
            "byteOffset": 0,
            "byteStride": 0,
            "componentType": 5126,
            "count": 62412,
            "type": "VEC3",
            "max": [
                0.1621536761522293,
                -0.016612105071544648,
                0.2686675786972046
            ],
            "min": [
                -0.17193180322647096,
                -0.15880084037780763,
                -0.352272629737854
            ]
        },
        "Jersey1_mesh_3_accessor_0": {
            "bufferView": "Jersey1_mesh_3_view_0",
            "byteOffset": 0,
            "byteStride": 0,
            "componentType": 5126,
            "count": 62412,
            "type": "VEC3",
            "max": [
                0.9988413453102112,
                0.32282355427742007,
                0.8866670727729797
            ],
            "min": [
                -0.9924106597900391,
                -0.9999717473983765,
                -0.3932942748069763
            ]
        },
        "Jersey1_mesh_3_accessor_1": {
            "bufferView": "Jersey1_mesh_3_view_1",
            "byteOffset": 0,
            "byteStride": 0,
            "componentType": 5126,
            "count": 62412,
            "type": "VEC2",
            "max": [
                0.9143308997154236,
                0.9807227253913879
            ],
            "min": [
                0.052687592804431918,
                0.5374777913093567
            ]
        },
        "Jersey1_mesh_3_accessor_2": {
            "bufferView": "Jersey1_mesh_3_view_2",
            "byteOffset": 0,
            "byteStride": 0,
            "componentType": 5123,
            "count": 62412,
            "type": "SCALAR",
            "max": [
                62411.0
            ],
            "min": [
                0.0
            ]
        },
        "Jersey1_mesh_4_accessor": {
            "bufferView": "Jersey1_mesh_4_view",
            "byteOffset": 0,
            "byteStride": 0,
            "componentType": 5126,
            "count": 3662,
            "type": "VEC3",
            "max": [
                0.009575489908456803,
                -0.07655118405818939,
                0.22777116298675538
            ],
            "min": [
                -0.02465153858065605,
                -0.09967246651649475,
                0.17167460918426515
            ]
        },
        "Jersey1_mesh_4_accessor_0": {
            "bufferView": "Jersey1_mesh_4_view_0",
            "byteOffset": 0,
            "byteStride": 0,
            "componentType": 5126,
            "count": 3662,
            "type": "VEC3",
            "max": [
                0.9992142915725708,
                0.9999202489852905,
                0.9995633363723755
            ],
            "min": [
                -0.9999967217445374,
                -0.9985780715942383,
                -0.9995635747909546
            ]
        },
        "Jersey1_mesh_4_accessor_1": {
            "bufferView": "Jersey1_mesh_4_view_1",
            "byteOffset": 0,
            "byteStride": 0,
            "componentType": 5126,
            "count": 3662,
            "type": "VEC2",
            "max": [
                0.97971510887146,
                1.0
            ],
            "min": [
                0.0,
                0.3392648696899414
            ]
        },
        "Jersey1_mesh_4_accessor_2": {
            "bufferView": "Jersey1_mesh_4_view_2",
            "byteOffset": 0,
            "byteStride": 0,
            "componentType": 5123,
            "count": 17844,
            "type": "SCALAR",
            "max": [
                3661.0
            ],
            "min": [
                0.0
            ]
        }
    },
    "buffers": {
        "../../download/mnnymz5cfprn/mnnymz5cfprn": {
            "byteLength": 9536584,
            "type": "arraybuffer",
            "uri": "../../download/mnnymz5cfprn/mnnymz5cfprn.bin"
        }
    },
    "bufferViews": {
        "Jersey1_mesh_view": {
            "buffer": "../../download/mnnymz5cfprn/mnnymz5cfprn",
            "byteOffset": 0,
            "byteLength": 187812,
            "target": 34962
        },
        "Jersey1_mesh_view_0": {
            "buffer": "../../download/mnnymz5cfprn/mnnymz5cfprn",
            "byteOffset": 187812,
            "byteLength": 187812,
            "target": 34962
        },
        "Jersey1_mesh_view_1": {
            "buffer": "../../download/mnnymz5cfprn/mnnymz5cfprn",
            "byteOffset": 375624,
            "byteLength": 125208,
            "target": 34962
        },
        "Jersey1_mesh_view_2": {
            "buffer": "../../download/mnnymz5cfprn/mnnymz5cfprn",
            "byteOffset": 500832,
            "byteLength": 182580,
            "target": 34963
        },
        "Jersey1_mesh_0_view": {
            "buffer": "../../download/mnnymz5cfprn/mnnymz5cfprn",
            "byteOffset": 683412,
            "byteLength": 786420,
            "target": 34962
        },
        "Jersey1_mesh_0_view_0": {
            "buffer": "../../download/mnnymz5cfprn/mnnymz5cfprn",
            "byteOffset": 1469832,
            "byteLength": 786420,
            "target": 34962
        },
        "Jersey1_mesh_0_view_1": {
            "buffer": "../../download/mnnymz5cfprn/mnnymz5cfprn",
            "byteOffset": 2256252,
            "byteLength": 524280,
            "target": 34962
        },
        "Jersey1_mesh_0_view_2": {
            "buffer": "../../download/mnnymz5cfprn/mnnymz5cfprn",
            "byteOffset": 2780532,
            "byteLength": 131070,
            "target": 34963
        },
        "Jersey1_mesh_1_view": {
            "buffer": "../../download/mnnymz5cfprn/mnnymz5cfprn",
            "byteOffset": 2911604,
            "byteLength": 748908,
            "target": 34962
        },
        "Jersey1_mesh_1_view_0": {
            "buffer": "../../download/mnnymz5cfprn/mnnymz5cfprn",
            "byteOffset": 3660512,
            "byteLength": 748908,
            "target": 34962
        },
        "Jersey1_mesh_1_view_1": {
            "buffer": "../../download/mnnymz5cfprn/mnnymz5cfprn",
            "byteOffset": 4409420,
            "byteLength": 499272,
            "target": 34962
        },
        "Jersey1_mesh_1_view_2": {
            "buffer": "../../download/mnnymz5cfprn/mnnymz5cfprn",
            "byteOffset": 4908692,
            "byteLength": 124818,
            "target": 34963
        },
        "Jersey1_mesh_2_view": {
            "buffer": "../../download/mnnymz5cfprn/mnnymz5cfprn",
            "byteOffset": 5033512,
            "byteLength": 786420,
            "target": 34962
        },
        "Jersey1_mesh_2_view_0": {
            "buffer": "../../download/mnnymz5cfprn/mnnymz5cfprn",
            "byteOffset": 5819932,
            "byteLength": 786420,
            "target": 34962
        },
        "Jersey1_mesh_2_view_1": {
            "buffer": "../../download/mnnymz5cfprn/mnnymz5cfprn",
            "byteOffset": 6606352,
            "byteLength": 524280,
            "target": 34962
        },
        "Jersey1_mesh_2_view_2": {
            "buffer": "../../download/mnnymz5cfprn/mnnymz5cfprn",
            "byteOffset": 7130632,
            "byteLength": 131070,
            "target": 34963
        },
        "Jersey1_mesh_3_view": {
            "buffer": "../../download/mnnymz5cfprn/mnnymz5cfprn",
            "byteOffset": 7261704,
            "byteLength": 748944,
            "target": 34962
        },
        "Jersey1_mesh_3_view_0": {
            "buffer": "../../download/mnnymz5cfprn/mnnymz5cfprn",
            "byteOffset": 8010648,
            "byteLength": 748944,
            "target": 34962
        },
        "Jersey1_mesh_3_view_1": {
            "buffer": "../../download/mnnymz5cfprn/mnnymz5cfprn",
            "byteOffset": 8759592,
            "byteLength": 499296,
            "target": 34962
        },
        "Jersey1_mesh_3_view_2": {
            "buffer": "../../download/mnnymz5cfprn/mnnymz5cfprn",
            "byteOffset": 9258888,
            "byteLength": 124824,
            "target": 34963
        },
        "Jersey1_mesh_4_view": {
            "buffer": "../../download/mnnymz5cfprn/mnnymz5cfprn",
            "byteOffset": 9383712,
            "byteLength": 43944,
            "target": 34962
        },
        "Jersey1_mesh_4_view_0": {
            "buffer": "../../download/mnnymz5cfprn/mnnymz5cfprn",
            "byteOffset": 9427656,
            "byteLength": 43944,
            "target": 34962
        },
        "Jersey1_mesh_4_view_1": {
            "buffer": "../../download/mnnymz5cfprn/mnnymz5cfprn",
            "byteOffset": 9471600,
            "byteLength": 29296,
            "target": 34962
        },
        "Jersey1_mesh_4_view_2": {
            "buffer": "../../download/mnnymz5cfprn/mnnymz5cfprn",
            "byteOffset": 9500896,
            "byteLength": 35688,
            "target": 34963
        }
    },
    "materials": {
        "FABRIC 1_FRONT_2291": {
            "values": {
                "ambient": [
                    0.0,
                    0.0,
                    0.0,
                    1.0
                ],
                "diffuse": [
                    0.0,
                    0.0331047847867012,
                    0.3515326678752899,
                    1.0
                ],
                "specular": [
                    0.0,
                    0.0,
                    0.0,
                    1.0
                ],
                "emission": [
                    0.0,
                    0.0,
                    0.0,
                    1.0
                ],
                "shininess": 0.0
            }
        },
        "FABRIC 2_FRONT_2298": {
            "values": {
                "ambient": [
                    0.0,
                    0.0,
                    0.0,
                    1.0
                ],
                "diffuse": [
                    0.05286061763763428,
                    0.2746773362159729,
                    0.7304610013961792,
                    1.0
                ],
                "specular": [
                    0.0,
                    0.0,
                    0.0,
                    1.0
                ],
                "emission": [
                    0.0,
                    0.0,
                    0.0,
                    1.0
                ],
                "shininess": 9.387682914733887
            }
        },
        "Material32783": {
            "values": {
                "ambient": [
                    0.0,
                    0.0,
                    0.0,
                    1.0
                ],
                "diffuse": [
                    1.0,
                    0.1421031802892685,
                    0.0,
                    1.0
                ],
                "specular": [
                    0.1772727221250534,
                    0.025191018357872964,
                    0.0,
                    1.0
                ],
                "emission": [
                    0.0,
                    0.0,
                    0.0,
                    1.0
                ],
                "shininess": 52.88529968261719
            }
        }
    },
    "meshes": {
        "Jersey1_mesh": {
            "name": "",
            "primitives": [
                {
                    "mode": 4,
                    "material": "FABRIC 1_FRONT_2291",
                    "indices": "Jersey1_mesh_accessor_2",
                    "attributes": {
                        "POSITION": "Jersey1_mesh_accessor",
                        "NORMAL": "Jersey1_mesh_accessor_0",
                        "TEXCOORD_0": "Jersey1_mesh_accessor_1"
                    }
                }
            ]
        },
        "Jersey1_mesh_0": {
            "name": "",
            "primitives": [
                {
                    "mode": 4,
                    "material": "FABRIC 2_FRONT_2298",
                    "indices": "Jersey1_mesh_0_accessor_2",
                    "attributes": {
                        "POSITION": "Jersey1_mesh_0_accessor",
                        "NORMAL": "Jersey1_mesh_0_accessor_0",
                        "TEXCOORD_0": "Jersey1_mesh_0_accessor_1"
                    }
                }
            ]
        },
        "Jersey1_mesh_1": {
            "name": "",
            "primitives": [
                {
                    "mode": 4,
                    "material": "FABRIC 2_FRONT_2298",
                    "indices": "Jersey1_mesh_1_accessor_2",
                    "attributes": {
                        "POSITION": "Jersey1_mesh_1_accessor",
                        "NORMAL": "Jersey1_mesh_1_accessor_0",
                        "TEXCOORD_0": "Jersey1_mesh_1_accessor_1"
                    }
                }
            ]
        },
        "Jersey1_mesh_2": {
            "name": "",
            "primitives": [
                {
                    "mode": 4,
                    "material": "FABRIC 2_FRONT_2298",
                    "indices": "Jersey1_mesh_2_accessor_2",
                    "attributes": {
                        "POSITION": "Jersey1_mesh_2_accessor",
                        "NORMAL": "Jersey1_mesh_2_accessor_0",
                        "TEXCOORD_0": "Jersey1_mesh_2_accessor_1"
                    }
                }
            ]
        },
        "Jersey1_mesh_3": {
            "name": "",
            "primitives": [
                {
                    "mode": 4,
                    "material": "FABRIC 2_FRONT_2298",
                    "indices": "Jersey1_mesh_3_accessor_2",
                    "attributes": {
                        "POSITION": "Jersey1_mesh_3_accessor",
                        "NORMAL": "Jersey1_mesh_3_accessor_0",
                        "TEXCOORD_0": "Jersey1_mesh_3_accessor_1"
                    }
                }
            ]
        },
        "Jersey1_mesh_4": {
            "name": "",
            "primitives": [
                {
                    "mode": 4,
                    "material": "Material32783",
                    "indices": "Jersey1_mesh_4_accessor_2",
                    "attributes": {
                        "POSITION": "Jersey1_mesh_4_accessor",
                        "NORMAL": "Jersey1_mesh_4_accessor_0",
                        "TEXCOORD_0": "Jersey1_mesh_4_accessor_1"
                    }
                }
            ]
        }
    },
    "nodes": {
        "RootNode": {
            "children": [
                "Jersey1"
            ]
        },
        "Jersey1": {
            "matrix": [
                100.0,
                0.0,
                0.0,
                0.0,
                0.0,
                100.0,
                0.0,
                0.0,
                0.0,
                0.0,
                100.0,
                0.0,
                0.0,
                0.0,
                0.0,
                1.0
            ],
            "meshes": [
                "Jersey1_mesh",
                "Jersey1_mesh_0",
                "Jersey1_mesh_1",
                "Jersey1_mesh_2",
                "Jersey1_mesh_3",
                "Jersey1_mesh_4"
            ]
        }
    },
    "scenes": {
        "defaultScene": {
            "nodes": [
                "RootNode"
            ]
        }
    },
    "scene": "defaultScene"
}